<mxfile host="Electron" modified="2023-09-20T16:27:43.193Z" agent="Mozilla/5.0 (Windows NT 10.0; Win64; x64) AppleWebKit/537.36 (KHTML, like Gecko) draw.io/21.6.8 Chrome/114.0.5735.289 Electron/25.5.0 Safari/537.36" etag="IxPd45HfCJdqoYwNzu1y" version="21.6.8" type="device">
  <diagram name="Page-1" id="NgwaZtyBOAkIUM3ggp30">
    <mxGraphModel dx="1036" dy="623" grid="1" gridSize="10" guides="1" tooltips="1" connect="1" arrows="1" fold="1" page="1" pageScale="1" pageWidth="850" pageHeight="1100" background="#FFFFFF" math="0" shadow="0">
      <root>
        <mxCell id="0" />
        <mxCell id="1" parent="0" />
        <mxCell id="sqFWJNK1JW8Re2AFc9Me-1" value="" style="ellipse;html=1;shape=startState;fillColor=#000000;strokeColor=#ff0000;" vertex="1" parent="1">
          <mxGeometry x="586" y="90" width="30" height="30" as="geometry" />
        </mxCell>
        <mxCell id="sqFWJNK1JW8Re2AFc9Me-2" value="" style="edgeStyle=orthogonalEdgeStyle;html=1;verticalAlign=bottom;endArrow=open;endSize=8;strokeColor=#FF0000;rounded=0;entryX=0.5;entryY=0;entryDx=0;entryDy=0;" edge="1" source="sqFWJNK1JW8Re2AFc9Me-1" parent="1" target="sqFWJNK1JW8Re2AFc9Me-8">
          <mxGeometry relative="1" as="geometry">
            <mxPoint x="389" y="180" as="targetPoint" />
          </mxGeometry>
        </mxCell>
        <mxCell id="sqFWJNK1JW8Re2AFc9Me-10" style="edgeStyle=orthogonalEdgeStyle;rounded=0;orthogonalLoop=1;jettySize=auto;html=1;exitX=0.5;exitY=1;exitDx=0;exitDy=0;entryX=0.5;entryY=0;entryDx=0;entryDy=0;strokeColor=#FF0000;" edge="1" parent="1" source="sqFWJNK1JW8Re2AFc9Me-3" target="sqFWJNK1JW8Re2AFc9Me-5">
          <mxGeometry relative="1" as="geometry" />
        </mxCell>
        <mxCell id="sqFWJNK1JW8Re2AFc9Me-3" value="Registration" style="rounded=1;whiteSpace=wrap;html=1;arcSize=40;fontColor=#000000;fillColor=#ffffc0;strokeColor=#ff0000;" vertex="1" parent="1">
          <mxGeometry x="521" y="270" width="160" height="40" as="geometry" />
        </mxCell>
        <mxCell id="sqFWJNK1JW8Re2AFc9Me-11" value="False" style="edgeStyle=orthogonalEdgeStyle;rounded=0;orthogonalLoop=1;jettySize=auto;html=1;exitX=1;exitY=0.5;exitDx=0;exitDy=0;entryX=1;entryY=0.5;entryDx=0;entryDy=0;strokeColor=#FF0000;" edge="1" parent="1" source="sqFWJNK1JW8Re2AFc9Me-5" target="sqFWJNK1JW8Re2AFc9Me-8">
          <mxGeometry relative="1" as="geometry">
            <Array as="points">
              <mxPoint x="721" y="380" />
              <mxPoint x="721" y="200" />
            </Array>
          </mxGeometry>
        </mxCell>
        <mxCell id="sqFWJNK1JW8Re2AFc9Me-13" value="True" style="edgeStyle=orthogonalEdgeStyle;rounded=0;orthogonalLoop=1;jettySize=auto;html=1;exitX=0.5;exitY=1;exitDx=0;exitDy=0;strokeColor=#FF0000;" edge="1" parent="1" source="sqFWJNK1JW8Re2AFc9Me-5" target="sqFWJNK1JW8Re2AFc9Me-12">
          <mxGeometry relative="1" as="geometry" />
        </mxCell>
        <mxCell id="sqFWJNK1JW8Re2AFc9Me-5" value="Is valid" style="rhombus;whiteSpace=wrap;html=1;fontColor=#000000;fillColor=#ffffc0;strokeColor=#ff0000;" vertex="1" parent="1">
          <mxGeometry x="561" y="360" width="80" height="40" as="geometry" />
        </mxCell>
        <mxCell id="sqFWJNK1JW8Re2AFc9Me-9" style="edgeStyle=orthogonalEdgeStyle;rounded=0;orthogonalLoop=1;jettySize=auto;html=1;exitX=0.5;exitY=1;exitDx=0;exitDy=0;entryX=0.5;entryY=0;entryDx=0;entryDy=0;fillColor=#f8cecc;strokeColor=#FF0000;" edge="1" parent="1" source="sqFWJNK1JW8Re2AFc9Me-8" target="sqFWJNK1JW8Re2AFc9Me-3">
          <mxGeometry relative="1" as="geometry" />
        </mxCell>
        <mxCell id="sqFWJNK1JW8Re2AFc9Me-8" value="Visit Registration Page and Input Required Info." style="rounded=1;whiteSpace=wrap;html=1;arcSize=40;fontColor=#000000;fillColor=#ffffc0;strokeColor=#ff0000;" vertex="1" parent="1">
          <mxGeometry x="521" y="180" width="160" height="40" as="geometry" />
        </mxCell>
        <mxCell id="sqFWJNK1JW8Re2AFc9Me-12" value="" style="ellipse;html=1;shape=endState;fillColor=#000000;strokeColor=#ff0000;" vertex="1" parent="1">
          <mxGeometry x="586" y="460" width="30" height="30" as="geometry" />
        </mxCell>
        <mxCell id="sqFWJNK1JW8Re2AFc9Me-16" value="" style="swimlane;startSize=0;" vertex="1" parent="1">
          <mxGeometry x="430" y="80" width="360" height="430" as="geometry" />
        </mxCell>
      </root>
    </mxGraphModel>
  </diagram>
</mxfile>
